<svg width="150" height="300" viewBox="0 0 150 300" fill="none" xmlns="http://www.w3.org/2000/svg">
<rect width="150" height="300" fill="#E5E5E5"/>
<path d="M0 20C0 8.9543 8.95431 0 20 0H130C141.046 0 150 8.95431 150 20V280C150 291.046 141.046 300 130 300H20C8.9543 300 0 291.046 0 280V20Z" fill="white"/>
<rect y="119" width="75" height="92" fill="#993636"/>
<path d="M0 230C0 185.817 35.8172 150 80 150H150V280C150 291.046 141.046 300 130 300H20C8.9543 300 0 291.046 0 280V230Z" fill="white"/>
<g clip-path="url(#clip0_0_1)">
<path d="M0 20C0 8.9543 8.95431 0 20 0H130C141.046 0 150 8.95431 150 20V70C150 114.183 114.183 150 70 150H20C8.9543 150 0 141.046 0 130V20Z" fill="#993636"/>
</g>
<defs>
<clipPath id="clip0_0_1">
<path d="M0 20C0 8.9543 8.95431 0 20 0H130C141.046 0 150 8.95431 150 20V70C150 114.183 114.183 150 70 150H20C8.9543 150 0 141.046 0 130V20Z" fill="white"/>
</clipPath>
</defs>
</svg>
