<svg width="519" height="850" viewBox="0 0 519 850" fill="none" xmlns="http://www.w3.org/2000/svg">
<rect width="519" height="850" fill="#E5E5E5"/>
<path d="M0 20C0 8.9543 8.95431 0 20 0H499C510.046 0 519 8.95431 519 20V830C519 841.046 510.046 850 499 850H20C8.95431 850 0 841.046 0 830V20Z" fill="white"/>
<path d="M0 20C0 8.9543 8.95431 0 20 0H499C510.046 0 519 8.95431 519 20V260C519 304.183 483.183 340 439 340H20C8.95431 340 0 331.046 0 320V20Z" fill="#993636"/>
<rect width="107" height="283" transform="translate(0 159)" fill="#993636"/>
<path d="M0 420C0 375.817 35.8172 340 80 340H210V440C210 451.046 201.046 460 190 460H20C8.9543 460 0 451.046 0 440V420Z" fill="white"/>
</svg>
